/* XPM */
static char *result[] = {
/* columns rows colors chars-per-pixel */
"32 32 63 1 ",
"  c #2D2133",
". c #2E2132",
"X c #2F2332",
"o c #312432",
"O c #322633",
"+ c #342934",
"@ c #342935",
"# c #352C36",
"$ c #372F38",
"% c #39343D",
"& c #3A363E",
"* c #3C3740",
"= c #645F59",
"- c #646059",
"; c #65615A",
": c #66635C",
"> c #843346",
", c #9A4244",
"< c #A14744",
"1 c #A75148",
"2 c #AD5B4C",
"3 c #AD5C4D",
"4 c #B36450",
"5 c #B66952",
"6 c #B96E54",
"7 c #BB7155",
"8 c #B97056",
"9 c #BC7457",
"0 c #BC7458",
"q c #BD7759",
"w c #BF7A5B",
"e c #C07D5D",
"r c #C1805E",
"t c #C3835F",
"y c #C28360",
"u c #C28262",
"i c #C48661",
"p c #C58963",
"a c #C88F66",
"s c #C99267",
"d c #CC976F",
"f c #CC986B",
"g c #CD9B6D",
"h c #CF9E6E",
"j c #CF9D71",
"k c #D4A978",
"l c #A8A082",
"z c #A8A182",
"x c #ABA786",
"c c #DAB381",
"v c #DFBF8C",
"b c #CAC197",
"n c #CBC398",
"m c #CBC399",
"M c #CDC99C",
"N c #CEC99C",
"B c #D5CC9E",
"V c #D6CE9F",
"C c #E2C492",
"Z c #E4C997",
"A c #EACE9E",
"S c #D9D4A3",
"D c #FBDFB1",
/* pixels */
"BBBBBBVSSSSSSSSVBBBBBBBBBBBVSSSV",
"VBBBBBBVSSSSSSSSVBBBBBBBBBBBVSSS",
"SVBBBBBBVSSSSSSSSVBBBBBBBBBBBVSS",
"SSVBBBBBBVSSSSSSSSVBBBBBBBBBBBVS",
"SSSVBb----;::::::::-------bBBBBV",
"VSSSmz$%%%%%%%%%%%%%%%%%&*lbBBBB",
"BVSS:$hvZZZZZZZZZZZZZZZZAD*=BBBB",
"BBVS:#wjkkkkkkkkkkkkkkkkcA%=BBBB",
"BBBV:+6shhhhhhhhhhhhhhhhkZ%=BBBB",
"BBBB-+6shhhhhhhhhhhhhhhhkZ%=BBBB",
"BBBB-+6shhhhhhhhhhhhhhhhkZ%=BBBB",
"BBBB-+6shhhhhhhhhhhhhhhhkZ%=BBBB",
"BBBB-+6shhhhhhhhhhhhhhhhkZ%=BBBB",
"BBBB-+67rhhhhhhhhhf0ahhhkZ%:VBBB",
"BBBB-O250ighhhhhhst6ephhkZ%:SVBB",
"BBBB-o<466fhhhhhhi6669hhkZ%:SSVB",
"BBBB-o<4666rhhhh6666666skZ%:SSSV",
"VBBB-o<4666qigsi6666666rdZ%:SSSS",
"SVBB-o<466666sy666666666uC%:SSSS",
"SSVB-o<46666666666666666wh$:SSSS",
"SSSV-o<46666666666666666wh$:SSSS",
"SSSS;o<46666666666666666wh$;SSSS",
"SSSS:o<46666666666666666wh$=VSSS",
"SSSS:o<46666666666666666wh$=BVSS",
"SSSS:o,344444444444444448s#=BBVS",
"SSSS: >,<<<<<<<<<<<<<<<<16@=BBBV",
"VSSSNx.Xooooooooooooooooo@zbBBBB",
"BVSSSM::::;------------:::nBBBBB",
"BBVSSSSSSSSVBBBBBBBBBBBVSSSVBBBB",
"BBBVSSSSSSSSVBBBBBBBBBBBVSSSVBBB",
"BBBBVSSSSSSSSVBBBBBBBBBBBVSSSVBB",
"BBBBBVSSSSSSSSVBBBBBBBBBBBVSSSVB"
};
