/* XPM */
static char *result[] = {
/* columns rows colors chars-per-pixel */
"32 32 103 2 ",
"   c #211F30",
".  c #222C2C",
"X  c #2C302E",
"o  c #292A31",
"O  c #372133",
"+  c #382333",
"@  c #392433",
"#  c #313532",
"$  c #4C2436",
"%  c #512A37",
"&  c #612639",
"*  c #6C263A",
"=  c #6D283B",
"-  c #6C2D38",
";  c #76283C",
":  c #7D2E3D",
">  c #7E303D",
",  c #265F1B",
"<  c #2B671A",
"1  c #277315",
"2  c #277913",
"3  c #244524",
"4  c #35402B",
"5  c #36402B",
"6  c #255220",
"7  c #44422A",
"8  c #495B25",
"9  c #424A34",
"0  c #4A5C33",
"q  c #55613D",
"w  c #7A652B",
"e  c #4D3740",
"r  c #434045",
"t  c #4E4B4C",
"y  c #4F4B4C",
"u  c #4F4C4D",
"i  c #4F4D4D",
"p  c #78444C",
"a  c #794F52",
"s  c #645653",
"d  c #646059",
"f  c #66635C",
"g  c #7C655E",
"h  c #716E63",
"j  c #716F63",
"k  c #7B7567",
"l  c #8C2A3F",
"z  c #82353D",
"x  c #8F373F",
"c  c #972B40",
"v  c #9B2F40",
"b  c #B72E45",
"n  c #C73647",
"m  c #CC3048",
"M  c #CF3D48",
"N  c #D23749",
"B  c #D53A49",
"V  c #DA3F49",
"C  c #CC4547",
"Z  c #DB404A",
"A  c #DE434A",
"S  c #DF454A",
"D  c #E1464A",
"F  c #E2484A",
"G  c #E44A4A",
"H  c #E54E4D",
"J  c #E5524F",
"K  c #E6524F",
"L  c #E75A54",
"P  c #E65D56",
"I  c #E96359",
"U  c #EC7363",
"Y  c #28860F",
"T  c #318911",
"R  c #449114",
"E  c #72A11D",
"W  c #78A621",
"Q  c #75A533",
"!  c #928B75",
"~  c #938D76",
"^  c #949078",
"/  c #949178",
"(  c #9D967B",
")  c #A7977D",
"_  c #A5A47E",
"`  c #EF836D",
"'  c #F18B72",
"]  c #A4CC42",
"[  c #A8A082",
"{  c #A8A182",
"}  c #ABA786",
"|  c #B7B28D",
" . c #B6B28E",
".. c #B7B28E",
"X. c #BFB690",
"o. c #BFB892",
"O. c #C2BE94",
"+. c #CAC197",
"@. c #CBC399",
"#. c #CEC99C",
"$. c #D5CC9E",
"%. c #D6CE9F",
"&. c #D9D4A3",
/* pixels */
"$.$.$.$.$.$.%.&.&.&.&.&.&.&.&.%.$.$.$.$.$.$.$.$.$.$.$.%.&.&.&.%.",
"%.$.$.$.$.$.$.%.&.&.&.&.&.&.&.&.%.$.$.$.$.$.$.$.$.$.$.$.%.&.&.&.",
"&.%.$.$.$.$.$.$.%.&.&.&.&.&.&.&.&.%.$.$.$.$.$.$.$.$.$.$.$.%.&.&.",
"&.&.%.$.$.$.$.$.$.%.&.&.&.&.&.&.&.&.%.$.$.$.$.$.$.$.$.$.$.$.%.&.",
"&.&.&.%.$.$.$.$.$.$.%.&.&.&.&.&.&.&.&.%.$.$.$.$.$.$.$.$.$.$.$.%.",
"%.&.&.&.%.$.$.$.$.$.$.%.&.&.&.&.&.&.&.&.%.$.$.$.$.$.$.$.$.$.$.$.",
"$.%.&.&.&.%.$.$.$.$.$.$.%.&.&.&.&.&.&.&.&.%.$.$.$.$.$.$.$.$.$.$.",
"$.$.%.&.&.&.%.$.$.$.$.$.$.~ f h &.&.&.&.&.&.%.$.$.$.$.$.$.$.$.$.",
"$.$.$.%.&.&.&.%.$.$.$.$.$.d # q ^ #.&.&.&.&.&.%.$.$.$.$.$.$.$.$.",
"$.$.$.$.%.&.&.&.%.$.$.[ [ t 0 Q 5 _ O.&.&.&.&.&.%.$.$.$.$.$.$.$.",
"$.$.$.$.$.%.&.&.&.%.X.      3 T E X / &.&.&.&.&.&.%.$.$.$.$.$.$.",
"$.$.$.$.$.$.%.&.&.^ # ] W R , . Y . / &.&.&.&.&.&.&.%.$.$.$.$.$.",
"$.$.$.$.$.$.$.%.&.^ o 9 4 < 2 1 Y . r u u u ..&.&.&.&.%.$.$.$.$.",
"$.$.$.$.$.$.$.$.%. .j   * 7 8 w 6 - > z z ; g } &.&.&.&.%.$.$.$.",
"$.$.$.$.$.$.$.$.$.@.^ % n : x C % n A G G N = g | &.&.&.&.%.$.$.",
"$.$.$.$.$.$.$.$.$.! @ G G G G G G G G G G G N ; i &.&.&.&.&.%.$.",
"$.$.$.$.$.$.$.$.$.! @ G ` ' U K ' J G G G G N ; i &.&.&.&.&.&.%.",
"%.$.$.$.$.$.$.$.$.! @ G ` ' U H L G G S N G N ; i &.&.&.&.&.&.&.",
"&.%.$.$.$.$.$.$.$.! + B P I L G G G G F Z G N ; y &.&.&.&.&.&.&.",
"&.&.%.$.$.$.$.$.$.{ s l M D G G G G G G G Z v p k %.&.&.&.&.&.&.",
"&.&.&.%.$.$.$.$.$.$.X.  b V D D D D D D D m $ k $.$.%.&.&.&.&.&.",
"&.&.&.&.%.$.$.$.$.$.X.  b m m m m m m m m m $ k $.$.$.%.&.&.&.&.",
"&.&.&.&.&.%.$.$.$.$.$.X.e c m m m m m m m O ) +.$.$.$.$.%.&.&.&.",
"&.&.&.&.&.&.%.$.$.$.$.$.( a & & & & & & & ^ o.$.$.$.$.$.$.%.&.&.",
"&.&.&.&.&.&.&.%.$.$.$.$.$.! d d d d d d f &.&.%.$.$.$.$.$.$.%.&.",
"&.&.&.&.&.&.&.&.%.$.$.$.$.$.$.$.$.$.$.$.%.&.&.&.%.$.$.$.$.$.$.%.",
"%.&.&.&.&.&.&.&.&.%.$.$.$.$.$.$.$.$.$.$.$.%.&.&.&.%.$.$.$.$.$.$.",
"$.%.&.&.&.&.&.&.&.&.%.$.$.$.$.$.$.$.$.$.$.$.%.&.&.&.%.$.$.$.$.$.",
"$.$.%.&.&.&.&.&.&.&.&.%.$.$.$.$.$.$.$.$.$.$.$.%.&.&.&.%.$.$.$.$.",
"$.$.$.%.&.&.&.&.&.&.&.&.%.$.$.$.$.$.$.$.$.$.$.$.%.&.&.&.%.$.$.$.",
"$.$.$.$.%.&.&.&.&.&.&.&.&.%.$.$.$.$.$.$.$.$.$.$.$.%.&.&.&.%.$.$.",
"$.$.$.$.$.%.&.&.&.&.&.&.&.&.%.$.$.$.$.$.$.$.$.$.$.$.%.&.&.&.%.$."
};
