/* XPM */
static char *result[] = {
/* columns rows colors chars-per-pixel */
"32 32 61 1 ",
"  c #4C3A29",
". c #514A31",
"X c #775523",
"o c #7C652A",
"O c #353345",
"+ c #3B3B4D",
"@ c #565246",
"# c #414355",
"$ c #454558",
"% c #48475B",
"& c #796545",
"* c #7A6746",
"= c #7E754C",
"- c #7F774E",
"; c #7B7567",
": c #7C7768",
"> c #7D7A6A",
", c #9E631A",
"< c #A3701C",
"1 c #817431",
"2 c #867D47",
"3 c #A78024",
"4 c #A78228",
"5 c #AD8B3E",
"6 c #B19F32",
"7 c #CD911F",
"8 c #D39B1D",
"9 c #D39935",
"0 c #D8AA25",
"q c #D7AD29",
"w c #DCBA2C",
"e c #E1CA33",
"r c #8C855D",
"t c #B7A848",
"y c #BCB05E",
"u c #85827F",
"i c #8E8A7A",
"p c #D9A14B",
"a c #E6D349",
"s c #ECDB5F",
"d c #EEE07C",
"f c #F2E374",
"g c #7C808C",
"h c #868480",
"j c #908F98",
"k c #90949F",
"l c #A8A182",
"z c #ABA786",
"x c #A0A3AE",
"c c #D5CC9E",
"v c #D6CE9F",
"b c #F7EC8A",
"n c #F0E499",
"m c #D9D4A3",
"M c #F9F1A7",
"N c #B9C4CB",
"B c #C3CED4",
"V c #FBF6C4",
"C c #D8E1E4",
"Z c #FDFAE2",
"A c #EBF0F2",
/* pixels */
"ccccccvmmmmmmmmvcccccccccccvmmmv",
"vccccccvmmmmmmmmvcccccccccccvmmm",
"mvccccccvmmmmmmmmvcccccccccccvmm",
"mmvccccccvmmmmmmmmvcccccccccccvm",
"mmmvccccccvmmmmmmmmvcccccccccccv",
"vmmmvccccccvmmmmmmmmvccccccccccc",
"cvmmmvccccccvmmmmmmmmvcccccccccc",
"ccvmmmvccccccvmmmmmmmmvccccccccc",
"cccvmmmvccccccvmmmmmmmmvcccccccc",
"ccccvmmmvccccccvmmmmmmmmvccccccc",
"cccccvmm*2rrrrrrrrriiijhmvcccccc",
"cccccuro 1477777777995r@2iuccccc",
"cccc;Vto 8esssssssssssa.1tV;cccc",
"cccc;d;cX0sfbbbbbbVVZZb1m>s>vccc",
"cccc;s;cX0sfbbbbbbbbZZb1m>n>mvcc",
"cccc;s;cX0sbbbbbbbbbbMb1m>s>mmvc",
"cccc;s;cX0sbbbbbbbbbbbb1m>s>mmmv",
"vccc;f=;X0afffbbbbbbfbf1>-f>mmmm",
"mvcclts0X8easffbbbbbbse1astzmmmm",
"mmvccl;;;<8weeeeeeeeew3;;;zmmmmm",
"mmmvcccccl&XXXX,,XXXX&lcccvmmmmm",
"mmmmvccccccccc.ss@mmvccccccvmmmm",
"mmmmmvccccccc&2ppihmmvccccccvmmm",
"mmmmmmvccccccXasss2mmmvccccccvmm",
"mmmmmmmvcccccl.7q.lvmmmvccccccvm",
"mmmmmmmmvccccl6bbylcvmmmvccccccv",
"vmmmmmmmmv=2ryssbsyiihmmmvcccccc",
"cvmmmmmmm>800000000000:mmmvccccc",
"ccvmmmm>+#jj##jj##jj##jj>mmvcccc",
"cccvmmm>O%CC%%CC%%CC%%CA:mmmvccc",
"ccccvmm>gkkkkkkkkkkkkkkx;vmmmvcc",
"cccccvm>NBOOBBOOBBOOBBO$;cvmmmvc"
};
