/* XPM */
static char *result[] = {
/* columns rows colors chars-per-pixel */
"32 32 42 1 ",
"  c #211F30",
". c #2B293B",
"X c #724820",
"o c #775523",
"O c #7C652A",
"+ c #353345",
"@ c #3B3B4D",
"# c #414355",
"$ c #444655",
"% c #48475B",
"& c #745842",
"* c #796545",
"= c #7E754C",
"- c #7F774E",
"; c #595764",
": c #7B7567",
"> c #7C7768",
", c #7D7A6A",
"< c #696976",
"1 c #686D7A",
"2 c #995617",
"3 c #817431",
"4 c #A78024",
"5 c #CE8B16",
"6 c #D39B1D",
"7 c #D8AA25",
"8 c #DCBA2C",
"9 c #E1CA33",
"0 c #8C855D",
"q c #BCB05E",
"w c #848063",
"e c #E6D349",
"r c #F2E374",
"t c #7C808C",
"y c #908F98",
"u c #90949F",
"i c #ABA786",
"p c #D5CC9E",
"a c #D6CE9F",
"s c #D9D4A3",
"d c #C3CED4",
"f c #D8E1E4",
/* pixels */
"ppppppassssssssapppppppppppasssa",
"appppppassssssssapppppppppppasss",
"sappppppassssssssapppppppppppass",
"ssappppppassssssssapppppppppppas",
"sssappppppassssssssapppppppppppa",
"asssappppppassssssssappppppppppp",
"passsappppppassssssssapppppppppp",
"ppasssappppppassssssssappppppppp",
"pppasssappppppassssssssapppppppp",
"ppppasssappppppassssssssappppppp",
"pppppasssappppppassssssssapppppp",
"ppppppasssappppppassssssssappppp",
"pppppppasssappppppassssssssapppp",
"ppppppppasssappppppassssssssappp",
"pppppppp:wsssappppppassssssssapp",
"pppppppp:rwsssappppppassssssssap",
"ppp=0000qeewsssappppppassssssssa",
"appo89e9978e>sssappppppassssssss",
"sap&oooo478*passsappppppasssssss",
"ssappp:o:6*pppasssappppppassssss",
"sssapp:O:*pppppasssappppppasssss",
"ssssap:3ppppppppasssappppppassss",
"sssssa:3pppppppppasssappppppasss",
"ssssss>3ppppppppppasssappppppass",
"ssssss,3pppppppppppasssappppppas",
"ssssss,3apppppppppppasssappppppa",
"asssss,Osapppppppppppasssapppppp",
"passss,Ossapppppppppppasssappppp",
"ppasss,Osssap.#<y<#<y<#<y<#<y;pp",
"pppass,ossssa %ufu%ufu%ufu%ufypp",
"ppppaiXO-ssss$uuuuuuuuuuuuuuu<pp",
"ppppp&25Oisss1dt+tdt+tdt+tdt+@ap"
};
