/* XPM */
static char *result[] = {
/* columns rows colors chars-per-pixel */
"32 32 12 1 ",
"  c #211F30",
". c #076029",
"X c #9C1B4D",
"o c #CC3048",
"O c #E44A4A",
"+ c #28860F",
"@ c #72A11D",
"# c #A4CC42",
"$ c #D5CC9E",
"% c #D6CE9F",
"& c #D9D4A3",
"* c white",
/* pixels */
"$$$$$$%&&&&&&&&%$$$$$$$$$$$%&&&%",
"%$$$$$$%&&&&&&&&%$$$$$$$$$$$%&&&",
"&%$$$$$$%&&&&&&&&%$$$$$$$$$$$%&&",
"&&%$$$$$$%&&&&&&&&%$$$$$$$$$$$%&",
"&&&%$   $$%      &&%    $$$$$$$%",
"%&&& OOO $ @@@@@@ & @@@@ $$$$$$$",
"$%&& oooX                $$$$$$$",
"$$%&&  X XoOOOoOooooOoOOO $$$$$$",
"$$$% oX    XXXoXooooXoXX  $$$$$$",
"$$$$ Oo XXooooooooooooooo $$$$$$",
"$$$$ Oo                   $$$$$$",
"$$$$ O  ++++.****.+.****.+ $$$$$",
"$$$$$  +@@@@+....+@+....+@ %$$$$",
"$$$$$$ @@@@@@@@@@@@@@@@@@@ &%$$$",
"$$$$$$ @@@@@............@@ &&%$$",
"$$$$$$ @@@@+@@@@@@@@@@@@+@ &&&%$",
"$$$$$$ @@@@@@@@@+++++@@@@@ &&&&%",
"%$$$$$$ +@@@@@@@@@@@@@@@+ &&&&&&",
"&%$$$$$$ ++@@@@@@@@@@@++ &&&&&&&",
"&&%$$$$$$  @@@@@@@@@@@  $%&&&&&&",
"&&&%$$$$$$ @@@#######@ $$$%&&&&&",
"&&&&%$$$$ @@@#########@ $$$%&&&&",
"&&&&&%$$ @@@@#########@  $$$%&&&",
"&&&&&&% +@@@@#########@ + $$$%&&",
"&&&&&&& +@+ @#########@ + $$$$%&",
"&&&&&&& ++ @@@#######@@@  $$$$$%",
"%&&&&&&&  +@@@       @@@ %$$$$$$",
"$%&&&&&&& +@@@ $$$$ +@@+ &%$$$$$",
"$$%&&&&&& +@@ $$$$$ +++ &&&%$$$$",
"$$$%&&&&& +@+ $$$$$$   $%&&&%$$$",
"$$$$%&&&& ++ %$$$$$$$$$$$%&&&%$$",
"$$$$$%&&&&  &&%$$$$$$$$$$$%&&&%$"
};
