/* XPM */
static char *result[] = {
/* columns rows colors chars-per-pixel */
"32 32 27 1 ",
"  c #211F30",
". c #5F1D3F",
"X c #76283C",
"o c #18731C",
"O c #255220",
"+ c #076029",
"@ c #4A6027",
"# c #7B7567",
"$ c #7C7768",
"% c #7D7A6A",
"& c #82353D",
"* c #9C1B4D",
"= c #B4264B",
"- c #CC3048",
"; c #D83D49",
": c #E44A4A",
"> c #28860F",
", c #3D8023",
"< c #4D9416",
"1 c #72A11D",
"2 c #8BB730",
"3 c #A4CC42",
"4 c #83B094",
"5 c #D5CC9E",
"6 c #D6CE9F",
"7 c #D9D4A3",
"8 c white",
/* pixels */
"55555567777777765555555555567776",
"65555556777777776555555555556777",
"76555555677777777655555555555677",
"77655555567777777765555555555567",
"77765555556777777776555555555556",
"67776555555677777777655555555555",
"5677%  #55#     %77%   #55555555",
"556%&::&##@11111@%%@111@#5555555",
"555#X--=.               #5555555",
"5555# ...=;::;;;---;;;::&#555555",
"555#X=.   .**===---===*. #555555",
"555#&;X.*=--------------X%655555",
"555#&;X                  %765555",
"555#&& O>>>o48884oo48884oO%76555",
"5555# O<111<o+++o<<o+++o<@%77655",
"55555#@111111111111111111@%77765",
"55555#@1111,+++++++++++,1@%77776",
"65555#@111<<11111111111<<@%77777",
"76555#@11111111<>>>><1111@%77777",
"776555#O<11111111111111<O$777777",
"7776555#O><1111111111<>O#5677777",
"7777655#  @1111111111@  #5567777",
"777776#@11111233333321@OO#556777",
"77777%O<1<O@2333333332@O>O#55677",
"77777%O>>O@12333333332@O>O#55567",
"777777%  O<11233333321@  #555556",
"67777777%O<1@       @1@%76555555",
"56777777%O<<O#5555#O<<O%77655555",
"55677777%O>O#55555#O>O#677765555",
"555677777% %6555555# #5567776555",
"55556777777776555555555556777655",
"55555677777777655555555555677765"
};
